/* Copyright (C) 2002 lignum Computing, Inc. <lignumcad@lignumcomputing.com> */
#define create_align_mask_width 32
#define create_align_mask_height 32
static unsigned char create_align_mask_bits[] = {
   0x00, 0x00, 0x00, 0x00, 0x00, 0x00, 0x00, 0x00, 0x18, 0x00, 0x00, 0x00,
   0x38, 0x00, 0x00, 0x00, 0x78, 0x00, 0x00, 0x00, 0xf8, 0x00, 0x00, 0x00,
   0xf8, 0x01, 0x00, 0x00, 0xf8, 0x03, 0x00, 0x00, 0xf8, 0x07, 0x00, 0x00,
   0xf8, 0x0f, 0x00, 0x00, 0xf8, 0x1f, 0x00, 0x00, 0xf8, 0x3f, 0x00, 0x00,
   0xf8, 0x7f, 0x00, 0x00, 0xf8, 0x3f, 0x00, 0x00, 0xf8, 0x03, 0x70, 0x00,
   0x78, 0x00, 0x70, 0x00, 0x30, 0x80, 0x73, 0x0e, 0x00, 0x80, 0x77, 0x0f,
   0x00, 0x80, 0xff, 0x0f, 0x00, 0xf0, 0xff, 0x7f, 0x00, 0xf0, 0xff, 0x7f,
   0x00, 0xf0, 0xff, 0x7f, 0x00, 0x80, 0xff, 0x0f, 0x00, 0x80, 0x77, 0x0f,
   0x00, 0x80, 0x73, 0x0e, 0x00, 0x00, 0x70, 0x00, 0x00, 0x00, 0x00, 0x00,
   0x00, 0x00, 0x00, 0x00, 0x00, 0x00, 0x00, 0x00, 0x00, 0x00, 0x00, 0x00,
   0x00, 0x00, 0x00, 0x00, 0x00, 0x00, 0x00, 0x00 };
