/* Copyright (C) 2002 lignum Computing, Inc. <lignumcad@lignumcomputing.com> */
#define create_ctrline_mask_width 32
#define create_ctrline_mask_height 32
static unsigned char create_ctrline_mask_bits[] = {
   0x00, 0x00, 0x00, 0x00, 0x00, 0x00, 0x70, 0x00, 0x18, 0x00, 0x70, 0x00,
   0x38, 0x00, 0x70, 0x00, 0x78, 0x00, 0xfc, 0x00, 0xf8, 0x00, 0xfe, 0x01,
   0xf8, 0x01, 0xfe, 0x01, 0xf8, 0x03, 0xfe, 0x01, 0xf8, 0x07, 0xfe, 0x01,
   0xf8, 0x0f, 0xfe, 0x01, 0xf8, 0x1f, 0xfe, 0x01, 0xf8, 0x3f, 0xfe, 0x01,
   0xf8, 0x7f, 0xfc, 0x00, 0xf8, 0x3f, 0xf0, 0x03, 0xf8, 0x03, 0xf0, 0x03,
   0x78, 0x00, 0xf0, 0x03, 0x30, 0x00, 0x70, 0x00, 0x00, 0x00, 0x70, 0x00,
   0x00, 0x00, 0x70, 0x00, 0x00, 0x00, 0x70, 0x00, 0x00, 0x00, 0x70, 0x00,
   0x00, 0x00, 0x70, 0x00, 0x00, 0x00, 0x70, 0x00, 0x00, 0x00, 0x70, 0x00,
   0x00, 0x00, 0x70, 0x00, 0x00, 0x00, 0x70, 0x00, 0x00, 0x00, 0x70, 0x00,
   0x00, 0x00, 0x70, 0x00, 0x00, 0x00, 0x70, 0x00, 0x00, 0x00, 0x70, 0x00,
   0x00, 0x00, 0x70, 0x00, 0x00, 0x00, 0x00, 0x00 };
