/* Copyright (C) 2002 lignum Computing, Inc. <lignumcad@lignumcomputing.com */
#define create_asm_constraint_pl_width 32
#define create_asm_constraint_pl_height 32
#define create_asm_constraint_pl_x_hot 4
#define create_asm_constraint_pl_y_hot 4
static unsigned char create_asm_constraint_pl_bits[] = {
   0x00, 0x00, 0x00, 0x00, 0x00, 0x00, 0x00, 0x00, 0x00, 0x00, 0x00, 0x08,
   0x10, 0x00, 0x00, 0x08, 0x30, 0x00, 0x00, 0x3e, 0x70, 0x00, 0x00, 0x08,
   0xf0, 0x00, 0x00, 0x08, 0xf0, 0x01, 0x00, 0x00, 0xf0, 0x03, 0x00, 0x00,
   0xf0, 0x07, 0x00, 0x00, 0xf0, 0x0f, 0x00, 0x00, 0xf0, 0x1f, 0x00, 0x00,
   0xf0, 0x3f, 0x00, 0x00, 0xf0, 0x03, 0x04, 0x80, 0x70, 0x00, 0x02, 0x40,
   0x30, 0x00, 0x01, 0x20, 0x00, 0x80, 0x00, 0x10, 0x00, 0x80, 0xff, 0x1f,
   0x00, 0x80, 0x00, 0x10, 0x00, 0x80, 0x00, 0x10, 0x00, 0x80, 0x00, 0x10,
   0x00, 0x80, 0x00, 0x10, 0x00, 0x80, 0x00, 0x10, 0x00, 0x80, 0x00, 0x10,
   0x00, 0x80, 0x00, 0x10, 0x00, 0x80, 0x08, 0x90, 0x00, 0x80, 0x04, 0x50,
   0x00, 0x80, 0x02, 0x30, 0x00, 0x80, 0x01, 0x10, 0x00, 0x80, 0xff, 0x1f,
   0x00, 0x00, 0x00, 0x00, 0x00, 0x00, 0x00, 0x00 };
