/* Copyright (C) 2002 lignum Computing, Inc. <lignumcad@lignumcomputing.com> */
#define create_ctrline_width 32
#define create_ctrline_height 32
#define create_ctrline_x_hot 4
#define create_ctrline_y_hot 4
static unsigned char create_ctrline_bits[] = {
   0x00, 0x00, 0x00, 0x00, 0x00, 0x00, 0x20, 0x00, 0x00, 0x00, 0x20, 0x00,
   0x10, 0x00, 0x20, 0x00, 0x30, 0x00, 0x00, 0x00, 0x70, 0x00, 0x78, 0x00,
   0xf0, 0x00, 0x8c, 0x00, 0xf0, 0x01, 0x04, 0x00, 0xf0, 0x03, 0x24, 0x00,
   0xf0, 0x07, 0xa4, 0x00, 0xf0, 0x0f, 0xac, 0x00, 0xf0, 0x1f, 0x78, 0x00,
   0xf0, 0x3f, 0x20, 0x00, 0xf0, 0x03, 0x20, 0x00, 0x70, 0x00, 0xe0, 0x01,
   0x30, 0x00, 0x00, 0x00, 0x00, 0x00, 0x20, 0x00, 0x00, 0x00, 0x20, 0x00,
   0x00, 0x00, 0x20, 0x00, 0x00, 0x00, 0x00, 0x00, 0x00, 0x00, 0x20, 0x00,
   0x00, 0x00, 0x20, 0x00, 0x00, 0x00, 0x20, 0x00, 0x00, 0x00, 0x00, 0x00,
   0x00, 0x00, 0x20, 0x00, 0x00, 0x00, 0x20, 0x00, 0x00, 0x00, 0x20, 0x00,
   0x00, 0x00, 0x00, 0x00, 0x00, 0x00, 0x20, 0x00, 0x00, 0x00, 0x20, 0x00,
   0x00, 0x00, 0x20, 0x00, 0x00, 0x00, 0x00, 0x00 };
