/* Copyright (C) 2002 lignum Computing, Inc. <lignumcad@lignumcomputing.com> */
#define delete_constraint_width 32
#define delete_constraint_height 32
#define delete_constraint_x_hot 4
#define delete_constraint_y_hot 4
static unsigned char delete_constraint_bits[] = {
   0x00, 0x00, 0x00, 0x00, 0x00, 0x00, 0x00, 0x00, 0x00, 0x00, 0x00, 0x00,
   0x10, 0x00, 0x00, 0x00, 0x30, 0x00, 0x00, 0x00, 0x70, 0x00, 0x00, 0x00,
   0xf0, 0x00, 0x00, 0x00, 0xf0, 0x01, 0x00, 0x00, 0xf0, 0x03, 0x00, 0x00,
   0xf0, 0x07, 0x00, 0x00, 0xf0, 0x0f, 0x00, 0x00, 0xf0, 0x1f, 0x00, 0x00,
   0xf0, 0x3f, 0x00, 0x00, 0xf0, 0x03, 0x00, 0x00, 0x70, 0x00, 0x00, 0x08,
   0x30, 0x00, 0x07, 0x0c, 0x00, 0x00, 0x0e, 0x06, 0x00, 0x00, 0x1e, 0x03,
   0x00, 0x00, 0xfc, 0x01, 0x00, 0x00, 0xf8, 0x00, 0x00, 0x00, 0x70, 0x00,
   0x00, 0x00, 0xf0, 0x00, 0x00, 0x00, 0xf8, 0x01, 0x00, 0x00, 0x9e, 0x01,
   0x00, 0x00, 0x0f, 0x03, 0x00, 0x80, 0x0f, 0x06, 0x00, 0x00, 0x07, 0x0c,
   0x00, 0x00, 0x02, 0x08, 0x00, 0x00, 0x00, 0x00, 0x00, 0x00, 0x00, 0x00,
   0x00, 0x00, 0x00, 0x00, 0x00, 0x00, 0x00, 0x00 };
