/* Copyright (C) 2002 lignum Computing, Inc. <lignumcad@lignumcomputing.com> */
#define delete_constraint_mask_width 32
#define delete_constraint_mask_height 32
#define delete_constraint_mask_x_hot 4
#define delete_constraint_mask_y_hot 4
static unsigned char delete_constraint_mask_bits[] = {
   0x00, 0x00, 0x00, 0x00, 0x00, 0x00, 0x00, 0x00, 0x38, 0x00, 0x00, 0x00,
   0x78, 0x00, 0x00, 0x00, 0xf8, 0x00, 0x00, 0x00, 0xf8, 0x01, 0x00, 0x00,
   0xf8, 0x03, 0x00, 0x00, 0xf8, 0x07, 0x00, 0x00, 0xf8, 0x0f, 0x00, 0x00,
   0xf8, 0x1f, 0x00, 0x00, 0xf8, 0x3f, 0x00, 0x00, 0xf8, 0x7f, 0x00, 0x00,
   0xf8, 0x7f, 0x00, 0x00, 0xf8, 0x7f, 0x00, 0x1c, 0xf8, 0x87, 0x0f, 0x1e,
   0xf8, 0x80, 0x1f, 0x1f, 0x78, 0x80, 0xbf, 0x1f, 0x00, 0x00, 0xff, 0x0f,
   0x00, 0x00, 0xff, 0x07, 0x00, 0x00, 0xfe, 0x03, 0x00, 0x00, 0xfc, 0x01,
   0x00, 0x00, 0xfc, 0x03, 0x00, 0x00, 0xff, 0x03, 0x00, 0x80, 0xff, 0x07,
   0x00, 0xc0, 0xff, 0x0f, 0x00, 0xc0, 0x9f, 0x1f, 0x00, 0xc0, 0x1f, 0x1f,
   0x00, 0x80, 0x0f, 0x1e, 0x00, 0x00, 0x07, 0x1c, 0x00, 0x00, 0x00, 0x00,
   0x00, 0x00, 0x00, 0x00, 0x00, 0x00, 0x00, 0x00 };
