/* Copyright (C) 2002 lignum Computing, Inc. <lignumcad@lignumcomputing.com> */
#define line_rotate_width 32
#define line_rotate_height 32
#define line_rotate_x_hot 4
#define line_rotate_y_hot 4
static unsigned char line_rotate_bits[] = {
   0x00, 0x00, 0x00, 0x00, 0x00, 0x00, 0x00, 0x00, 0x00, 0x00, 0x00, 0x00,
   0x10, 0x00, 0x00, 0x00, 0x30, 0x00, 0x00, 0x00, 0x70, 0x00, 0x00, 0x00,
   0xf0, 0x00, 0x00, 0x00, 0xf0, 0x01, 0x00, 0x00, 0xf0, 0x03, 0x00, 0x00,
   0xf0, 0x07, 0x00, 0x00, 0xf0, 0x0f, 0x00, 0x00, 0xf0, 0x1f, 0x00, 0x00,
   0xf0, 0x1f, 0x00, 0x00, 0xf0, 0x03, 0x00, 0x00, 0x70, 0x00, 0x00, 0x00,
   0x30, 0x00, 0x00, 0x07, 0x00, 0x00, 0xc4, 0x1d, 0x00, 0x00, 0x6c, 0x30,
   0x00, 0x00, 0x3c, 0x60, 0x00, 0x00, 0x3c, 0x40, 0x00, 0x00, 0x7c, 0x00,
   0x00, 0x00, 0xfc, 0x00, 0x00, 0x00, 0x00, 0x00, 0x00, 0x00, 0x00, 0x00,
   0x00, 0x00, 0x00, 0x7e, 0x00, 0x00, 0x00, 0x7c, 0x00, 0x00, 0x04, 0x78,
   0x00, 0x00, 0x0c, 0x78, 0x00, 0x00, 0x18, 0x6c, 0x00, 0x00, 0x70, 0x47,
   0x00, 0x00, 0xc0, 0x01, 0x00, 0x00, 0x00, 0x00 };
