/* Copyright (C) 2002 lignum Computing, Inc. <lignumcad@lignumcomputing.com */
#define resize_solid_mask_width 32
#define resize_solid_mask_height 32
#define resize_solid_mask_x_hot 4
#define resize_solid_mask_y_hot 4
static unsigned char resize_solid_mask_bits[] = {
   0x00, 0x00, 0x00, 0x00, 0x00, 0x00, 0x00, 0x00, 0x38, 0x00, 0x00, 0x00,
   0x78, 0x00, 0x00, 0x00, 0xf8, 0x00, 0x00, 0x00, 0xf8, 0x01, 0x00, 0x00,
   0xf8, 0x03, 0x00, 0x00, 0xf8, 0x07, 0x00, 0x00, 0xf8, 0x0f, 0x00, 0x00,
   0xf8, 0x1f, 0x00, 0x00, 0xf8, 0x3f, 0x00, 0x00, 0xf8, 0x7f, 0x0e, 0x00,
   0xf8, 0x7f, 0x1f, 0x00, 0xf8, 0x7f, 0x1f, 0x00, 0xf8, 0x87, 0x3f, 0x00,
   0xf8, 0x80, 0x3f, 0x00, 0x78, 0x80, 0xff, 0x0f, 0x00, 0x00, 0xce, 0x0f,
   0x00, 0x00, 0xce, 0x0f, 0x00, 0x00, 0xee, 0x0f, 0x00, 0x00, 0xfe, 0x0f,
   0x00, 0x00, 0xfe, 0x0f, 0x00, 0x00, 0xfe, 0x0e, 0x00, 0x00, 0x7e, 0x3e,
   0x00, 0x00, 0xfe, 0x7f, 0x00, 0x00, 0xfe, 0x7f, 0x00, 0x00, 0xfe, 0x7f,
   0x00, 0x00, 0x00, 0x3e, 0x00, 0x00, 0x00, 0x0e, 0x00, 0x00, 0x00, 0x00,
   0x00, 0x00, 0x00, 0x00, 0x00, 0x00, 0x00, 0x00 };
