/* Copyright (C) 2002 lignum Computing, Inc. <lignumcad@lignumcomputing.com */
#define resize_solid_width 32
#define resize_solid_height 32
#define resize_solid_x_hot 4
#define resize_solid_y_hot 4
static unsigned char resize_solid_bits[] = {
   0x00, 0x00, 0x00, 0x00, 0x00, 0x00, 0x00, 0x00, 0x00, 0x00, 0x00, 0x00,
   0x10, 0x00, 0x00, 0x00, 0x30, 0x00, 0x00, 0x00, 0x70, 0x00, 0x00, 0x00,
   0xf0, 0x00, 0x00, 0x00, 0xf0, 0x01, 0x00, 0x00, 0xf0, 0x03, 0x00, 0x00,
   0xf0, 0x07, 0x00, 0x00, 0xf0, 0x0f, 0x00, 0x00, 0xf0, 0x1f, 0x00, 0x00,
   0xf0, 0x3f, 0x04, 0x00, 0xf0, 0x03, 0x0e, 0x00, 0x70, 0x00, 0x0e, 0x00,
   0x30, 0x00, 0x1f, 0x00, 0x00, 0x00, 0x04, 0x00, 0x00, 0x00, 0x84, 0x07,
   0x00, 0x00, 0x04, 0x07, 0x00, 0x00, 0x84, 0x07, 0x00, 0x00, 0xc4, 0x04,
   0x00, 0x00, 0x64, 0x00, 0x00, 0x00, 0x34, 0x00, 0x00, 0x00, 0x1c, 0x04,
   0x00, 0x00, 0x0c, 0x1c, 0x00, 0x00, 0xfc, 0x3f, 0x00, 0x00, 0x00, 0x1c,
   0x00, 0x00, 0x00, 0x04, 0x00, 0x00, 0x00, 0x00, 0x00, 0x00, 0x00, 0x00,
   0x00, 0x00, 0x00, 0x00, 0x00, 0x00, 0x00, 0x00 };
